<?xml version="1.0" encoding="utf-8"?>
<!-- Generator: Adobe Illustrator 26.0.2, SVG Export Plug-In . SVG Version: 6.00 Build 0)  -->
<svg version="1.1" xmlns="http://www.w3.org/2000/svg" xmlns:xlink="http://www.w3.org/1999/xlink" x="0px" y="0px"
	 viewBox="0 0 140 40" enable-background="new 0 0 140 40" xml:space="preserve">
<g id="guides" display="none">
</g>
<g id="images">
</g>
<g id="Layer_5">
	<g id="g10" transform="matrix(1.25,0,0,-1.25,10,321.85516)">
		<g id="g3393">
			<path id="path22" fill-rule="evenodd" clip-rule="evenodd" fill="#D33A33" d="M10.731,241.5257
				c0-5.1833-4.108-9.3852-9.1755-9.3852c-5.0674,0-9.1755,4.2019-9.1755,9.3852c0,5.1834,4.108,9.3854,9.1755,9.3854
				C6.623,250.9111,10.731,246.7091,10.731,241.5257"/>
			<path id="path24" fill="#EF3F3B" d="M-7.2461,239.2013c0,0-0.6642,9.7872,8.3541,10.0669l-0.6291,1.0486l-4.8936-1.6429
				l-1.3982-1.6079l-1.2234-2.342l-0.6991-2.7264l0.2097-1.8176"/>
			<path id="path26" fill="#231F20" d="M-4.729,247.9281c-1.6099-1.6472-2.6061-3.9215-2.6061-6.4375l0,0
				c0-2.5155,0.9962-4.79,2.6061-6.4369l0,0c1.6106-1.6469,3.8303-2.6631,6.2843-2.6631l0,0c2.454,0,4.6739,1.0162,6.2844,2.6631
				l0,0c1.6098,1.6469,2.6062,3.9215,2.6062,6.4369l0,0c0,2.516-0.9964,4.7903-2.6062,6.4375l0,0
				c-1.6105,1.6466-3.8303,2.6628-6.2844,2.663l0,0C-0.8986,250.5909-3.1183,249.5747-4.729,247.9281L-4.729,247.9281z
				 M-5.1364,234.6553c-1.7109,1.7497-2.7686,4.1679-2.7686,6.8353l0,0c0,2.6678,1.0577,5.0858,2.7686,6.8356l0,0
				c1.7105,1.7502,4.0783,2.835,6.6918,2.8347l0,0c2.6135,0.0003,4.9816-1.0845,6.6918-2.8347l0,0
				c1.7111-1.7499,2.7689-4.168,2.7687-6.8356l0,0c0.0002-2.6674-1.0577-5.0856-2.7687-6.8353l0,0
				c-1.7102-1.7501-4.0782-2.8347-6.6918-2.8347l0,0C-1.0582,231.8206-3.4259,232.9053-5.1364,234.6553L-5.1364,234.6553"/>
			<path id="path28" fill-rule="evenodd" clip-rule="evenodd" fill="#F1D7B8" d="M5.4179,241.4737l-1.3982-0.2097l-1.8876-0.2097
				l-1.2235-0.0349l-1.1884,0.0349l-0.9089,0.2797l-0.804,0.8738l-0.6292,1.7827l-0.1398,0.3845l-0.8389,0.2796l-0.4894,0.804
				l-0.3495,1.1535l0.3846,1.0137l0.9087,0.3146l0.734-0.3496l0.3496-0.769l0.4195,0.0699l0.1398,0.1747l-0.1398,0.804
				l-0.035,1.0137l0.2097,1.3981l-0.0082,0.7986l0.6374,1.019l1.1186,0.804l1.9575,0.8389l2.1671-0.3146l1.8875-1.3632
				l0.8739-1.3981l0.5592-1.0137l0.1398-2.5167l-0.4195-2.1672l-0.769-1.9225l-0.734-1.0137"/>
			<path id="path30" fill-rule="evenodd" clip-rule="evenodd" fill="#345162" d="M4.2294,235.4266l-4.9986-0.2097v-0.8389
				l0.4195-2.9362l-0.2097-0.2448l-3.4954,1.1885l-0.2448,0.4195l-0.3495,3.9498l-0.8038,2.3769l-0.1748,0.5592l2.7963,1.9225
				l0.8739,0.3496l0.7689-0.9438l0.6641-0.5943l0.7691-0.2446l0.3495-0.1049l0.4195-1.8176l0.3146-0.3845l0.804,0.2796
				l-0.5593-1.0836l3.0411-1.4331L4.2294,235.4266"/>
			<path id="path32" fill-rule="evenodd" clip-rule="evenodd" fill="#6E6C6E" d="M-4.0548,247.6257l0.9087,0.3146l0.734-0.3496
				l0.3496-0.769l0.4195,0.0699l0.1049,0.4195l-0.2097,0.8039l0.2097,1.9226l-0.1748,1.0486l0.6292,0.7341l1.3632,1.0835
				l-0.3845,0.5243l-1.9225-0.9438l-0.804-0.6292l-0.4544-0.9787l-0.6991-0.9438l-0.2097-1.1186L-4.0548,247.6257"/>
			<path id="path34" fill-rule="evenodd" clip-rule="evenodd" fill="#DCD9D8" d="M-2.6218,250.9114c0,0,0.5243,1.2933,2.6216,1.9225
				s0.1049,0.4545,0.1049,0.4545l-2.272-0.8739l-0.8739-0.8738l-0.3844-0.6991L-2.6218,250.9114"/>
			<path id="path36" fill-rule="evenodd" clip-rule="evenodd" fill="#DCD9D8" d="M-3.6704,247.8704c0,0-0.734,2.4469,2.0623,2.7964
				l-0.1049,0.4194l-1.9224-0.4545l-0.5593-1.8176l0.1399-1.1884L-3.6704,247.8704"/>
			<path id="path38" fill-rule="evenodd" clip-rule="evenodd" fill="#F7E4CE" d="M-2.5519,244.6196l0.4577,0.4435
				c0,0,0.2066-0.024,0.2415-0.2687c0.0349-0.2448,0.1398-2.4469,1.6428-3.6354c0.1371-0.1084-1.1185,0.1749-1.1185,0.1749
				l-1.1186,1.7477"/>
			<path id="path40" fill-rule="evenodd" clip-rule="evenodd" fill="#F7E4CE" d="M3.88,245.2837c0,0,0.0815,1.0595,0.3668,0.9781
				s0.2853-0.3668,0.2853-0.3668S3.8392,245.4467,3.88,245.2837"/>
			<path id="path42" fill="#F7E4CE" d="M6.781,249.1636c0,0-0.5761-0.1216-0.6292-0.6292c-0.0531-0.5076,0.6292-0.1049,0.734-0.0699
				"/>
			<path id="path44" fill="#F7E4CE" d="M2.5516,249.1286c0,0-0.7691-0.1049-0.7691-0.5942c0-0.4894,0.874-0.4545,1.1186-0.2448"/>
			<path id="path46" fill-rule="evenodd" clip-rule="evenodd" fill="#F7E4CE" d="M-2.2023,246.8566c0,0-1.3283,0.804-1.4681,0.0349
				c-0.1398-0.769-0.4545-1.3283,0.2097-2.1322l-0.4544,0.1398l-0.4195,1.0836l-0.1398,1.0486l0.8039,0.839l0.9088-0.0699
				l0.5243-0.4195L-2.2023,246.8566"/>
			<path id="path48" fill-rule="evenodd" clip-rule="evenodd" fill="#F7E4CE" d="M-1.5731,249.0588c0,0,0.5942,3.076,3.6004,3.6702
				c2.4749,0.4892,3.775-0.1049,4.2644-0.6641c0,0-2.2021,2.6215-4.2994,1.8176c-2.0973-0.804-3.6352-2.2721-3.6003-3.2157
				C-1.5486,249.0594-1.5731,249.0588-1.5731,249.0588"/>
			<path id="path50" fill-rule="evenodd" clip-rule="evenodd" fill="#F7E4CE" d="M6.5364,251.7154c0,0-1.0136,0.0349-1.0486-0.8739
				c0,0-0.0001-0.1398,0.0698-0.2796c0,0,0.8041,0.9088,1.2934,0.4194"/>
			<path id="path52" fill-rule="evenodd" clip-rule="evenodd" fill="#F7E4CE" d="M2.0977,250.4672c0,0-0.1745,1.395-1.3638,0.584
				c-0.769-0.5243-0.699-1.2584-0.5593-1.3981c0.1398-0.1399,0.1018-0.4214,0.2082-0.2282
				c0.1064,0.1933,0.0713,0.8224,0.4559,0.9971C1.2232,250.5968,1.8536,250.7921,2.0977,250.4672"/>
			<path id="path54" fill-rule="evenodd" clip-rule="evenodd" fill="#49738C" d="M-1.1886,241.0193l-3.2857-1.4681
				c0,0,1.3632-5.418,0.6641-7.0958l-0.4894,0.1747l-0.0349,2.0624l-0.9087,3.9148l-0.3846,1.0837l3.4255,2.3069L-1.1886,241.0193"
				/>
			<path id="path56" fill-rule="evenodd" clip-rule="evenodd" fill="#49738C" d="M-0.8508,238.0226l0.4661-0.5688v-2.0973H-0.944
				c0,0-0.0698,1.4681-0.0698,1.6429c0,0.1748,0.0698,0.804,0.0698,0.804"/>
			<path id="path58" fill-rule="evenodd" clip-rule="evenodd" fill="#49738C" d="M-0.8391,235.042l-1.573-0.0698l0.4545-0.3146
				l1.1185-0.1748"/>
			<path id="path60" fill-rule="evenodd" clip-rule="evenodd" fill="#345162" d="M4.544,235.3916l1.2933,0.0349l0.3146-3.2159
				l-1.3283-0.1747L4.544,235.3916"/>
			<path id="path62" fill-rule="evenodd" clip-rule="evenodd" fill="#345162" d="M4.8935,235.3916l1.9575,0.1049
				c0,0,0.8039,2.0273,0.8039,2.1322c0,0.1049,0.6991,2.9362,0.6991,2.9362l-1.573,1.6428l-0.3146,0.2797l-0.8389-0.8389v-3.2508
				L4.8935,235.3916"/>
			<path id="path64" fill-rule="evenodd" clip-rule="evenodd" fill="#49738C" d="M5.7673,235.6363l-1.2233-0.2447l0.1747-0.9788
				c0.4544-0.2097,1.2234,0.3496,1.2234,0.3496"/>
			<path id="path66" fill-rule="evenodd" clip-rule="evenodd" fill="#49738C" d="M5.8023,241.7533l2.4468-1.8176l0.0699,0.8389
				l-1.8526,1.7127L5.8023,241.7533"/>
			<path id="path68" fill-rule="evenodd" clip-rule="evenodd" fill="#FFFFFF" d="M0.374,228.5052l-0.7237,2.9366l-0.3599,2.1668
				l-0.0595,1.6083l3.2754,0.1744l2.0378,0.0003l-0.1853-3.6706l0.3146-2.8313l-0.0349-0.5243l-2.6565-0.2097L0.374,228.5052"/>
			<path id="path70" fill-rule="evenodd" clip-rule="evenodd" fill="#DCD9D8" d="M4.0895,235.4265c0,0-0.1747-3.6353,0.3496-6.2219
				c0,0-1.0486-0.6642-2.5867-0.8389l2.9362,0.1049l0.3495,0.2097l-0.4195,5.7325l-0.1049,1.2236"/>
			<path id="path72" fill-rule="evenodd" clip-rule="evenodd" fill="#FFFFFF" d="M6.2114,232.49l1.3632,0.3845l2.5866,0.1398
				l0.3845,1.1884l-0.6991,2.0624L9.0427,236.37l-1.1186-0.3495l-1.0732-0.524l-0.5697,0.1045l-0.444-0.1745"/>
			<path id="path74" fill-rule="evenodd" clip-rule="evenodd" fill="#DCD9D8" d="M6.1868,233.1895c0,0,0.9087,0.4194,1.0486,0.3844
				l-0.3844,1.9226l0.4544,0.1747c0,0,0.3146-1.8176,0.3146-2.0273c0,0,1.9574-0.1049,2.1322-0.1049c0,0,0.4195,0.804,0.3146,1.6429
				l0.3845-1.1186l0.0349-0.6292l-0.5592-0.8389l-0.6292-0.1398l-1.0486,0.0349l-0.3495,0.4544L6.6762,232.77l-0.3845-0.1399"/>
			<path id="path76" fill="#FFFFFF" d="M4.8132,235.6709l-0.769,1.9575l-0.804,1.1535c0,0,0.1747,0.4894,0.4195,0.4894
				s0.804,0,0.804,0l0.769-0.2797l-0.0698-1.2933L4.8132,235.6709"/>
			<path id="path78" fill-rule="evenodd" clip-rule="evenodd" fill="#DCD9D8" d="M4.9634,236.3354c0,0-0.9788,1.8875-0.9788,2.1671
				c0,0,0.1747,0.4194,0.4195,0.3146s0.7691-0.3844,0.7691-0.3844v0.6641l-1.1885,0.2448l-0.8039-0.1049l1.3632-3.2158l0.2796-0.035
				"/>
			<path id="path80" fill="#FFFFFF" d="M0.6886,240.9489l-0.9684,0.1053l-0.9089,0.2797v-0.3146l0.4441-0.4897l1.3982-0.6292"/>
			<path id="path82" fill-rule="evenodd" clip-rule="evenodd" fill="#DCD9D8" d="M-0.8739,240.8442c0,0,1.0837-0.4545,1.4332-0.3496
				l0.0348-0.419l-0.9785,0.2093l-0.5943,0.4194L-0.8739,240.8442"/>
			<path id="path84" fill-rule="evenodd" clip-rule="evenodd" fill="#D33A33" d="M6.2076,239.1522
				c-0.5931,0.0174-1.129,0.0879-1.5981,0.2202c0.0319,0.1923-0.0278,0.3811,0.0201,0.5196
				c0.1308,0.0942,0.3499,0.0927,0.5476,0.1148c-0.1709,0.084-0.4111,0.1172-0.6083,0.0687
				c-0.0046,0.1335-0.0645,0.2162-0.1008,0.3207c0.3335,0.119,1.1207,0.8993,1.5635,0.6409c0.211-0.1229,0.3006-0.8249,0.317-1.1662
				C6.3623,239.5878,6.323,239.3022,6.2076,239.1522"/>
			<path id="path86" fill="none" stroke="#D33A33" stroke-width="2.5" stroke-miterlimit="5" d="M6.2076,239.1522
				c-0.5931,0.0174-1.129,0.0879-1.5981,0.2202c0.0319,0.1923-0.0278,0.3811,0.0201,0.5196
				c0.1308,0.0942,0.3499,0.0927,0.5476,0.1148c-0.1709,0.084-0.4111,0.1172-0.6083,0.0687
				c-0.0046,0.1335-0.0645,0.2162-0.1008,0.3207c0.3335,0.119,1.1207,0.8993,1.5635,0.6409c0.211-0.1229,0.3006-0.8249,0.317-1.1662
				C6.3623,239.5878,6.323,239.3022,6.2076,239.1522z"/>
			<path id="path88" fill-rule="evenodd" clip-rule="evenodd" fill="#D33A33" d="M3.3714,240.1218
				c-0.0016-0.0449-0.0035-0.0901-0.0052-0.1354c-0.1852-0.1216-0.4842-0.1202-0.6874-0.2224
				c0.2996-0.0131,0.5354-0.0853,0.7395-0.187c-0.0045-0.1131-0.0088-0.226-0.0132-0.339
				c-0.3394-0.2324-0.6495-0.5784-1.0492-0.7964c-0.189-0.1031-0.8521-0.3682-1.0532-0.3214
				c-0.1137,0.0264-0.124,0.1676-0.1695,0.3006c-0.0969,0.2849-0.3199,0.7384-0.3394,1.1673
				c-0.0248,0.5417-0.0795,1.4496,0.5043,1.3381c0.471-0.0899,1.0188-0.3068,1.3834-0.5061
				C2.9044,240.2984,3.0333,240.1478,3.3714,240.1218"/>
			<path id="path90" fill="none" stroke="#D33A33" stroke-width="2.5" stroke-miterlimit="5" d="M3.3714,240.1218
				c-0.0016-0.0449-0.0035-0.0901-0.0052-0.1354c-0.1852-0.1216-0.4842-0.1202-0.6874-0.2224
				c0.2996-0.0131,0.5354-0.0853,0.7395-0.187c-0.0045-0.1131-0.0088-0.226-0.0132-0.339
				c-0.3394-0.2324-0.6495-0.5784-1.0492-0.7964c-0.189-0.1031-0.8521-0.3682-1.0532-0.3214
				c-0.1137,0.0264-0.124,0.1676-0.1695,0.3006c-0.0969,0.2849-0.3199,0.7384-0.3394,1.1673
				c-0.0248,0.5417-0.0795,1.4496,0.5043,1.3381c0.471-0.0899,1.0188-0.3068,1.3834-0.5061
				C2.9044,240.2984,3.0333,240.1478,3.3714,240.1218z"/>
			<path id="path92" fill-rule="evenodd" clip-rule="evenodd" fill="#D33A33" d="M3.7085,239.4754
				c-0.0518,0.2951-0.1117,0.3793-0.0885,0.6367C4.407,240.6369,4.5548,239.2108,3.7085,239.4754"/>
			<path id="path94" fill="none" stroke="#D33A33" stroke-width="2.5" stroke-miterlimit="5" d="M3.7085,239.4754
				c-0.0518,0.2951-0.1117,0.3793-0.0885,0.6367C4.407,240.6369,4.5548,239.2108,3.7085,239.4754z"/>
			<path id="path96" fill-rule="evenodd" clip-rule="evenodd" fill="#EF3F3B" d="M4.8481,239.2362c0,0-0.2448,0.3496-0.0699,0.4545
				c0.1748,0.1049,0.3496-0.0001,0.4545,0.1747c0.1049,0.1748,0,0.2797,0.0349,0.4894c0.0349,0.2097,0.2098,0.2448,0.3845,0.2797
				c0.1747,0.0349,0.6642,0.1049,0.734-0.0699l-0.2097,0.6292l-0.4195,0.1398l-1.3283-0.769L4.3587,240.18v-0.769"/>
			<path id="path98" fill-rule="evenodd" clip-rule="evenodd" fill="#EF3F3B" d="M1.1779,238.0827
				c-0.042,0.5455-0.0864,1.0903-0.1359,1.6353c-0.074,0.8138,0.1955,0.6718,0.9008,0.6718c0.1077,0,0.6634-0.1284,0.7031-0.2097
				c0.1906-0.3894-0.3188-0.3029,0.2196-0.5965c0.4545-0.2478,1.2573,0.1505,1.0737,0.7013
				c-0.1028,0.1225-0.5354,0.0382-0.6905,0.1186c-0.2731,0.1416-0.5461,0.2831-0.8192,0.4247
				c-0.3474,0.1803-1.1504,0.443-1.5208,0.1912c-0.9386-0.6383,0.0592-2.2332,0.3941-2.899"/>
			<path id="path100" fill-rule="evenodd" clip-rule="evenodd" fill="#231F20" d="M2.0977,250.4672
				c-0.9527,0.2219-1.4261-0.3987-1.7149-1.0423c-0.2579,0.0625-0.1553,0.4132-0.0901,0.5918
				c0.1705,0.4689,0.8578,1.0932,1.4193,1.0086C1.9536,250.9889,2.2806,250.7679,2.0977,250.4672"/>
			<path id="path102" fill-rule="evenodd" clip-rule="evenodd" fill="#231F20" d="M6.7396,249.3823
				c0.015-0.0006,0.0302-0.0012,0.0452-0.0018c0.2153-0.4472,0.4016-0.921,0.6732-1.3158
				c-0.1819-0.4238-1.3777-0.7987-1.3592-0.0379c0.2586,0.1131,0.705,0.0231,0.9342,0.1675
				C6.9005,248.558,6.7092,248.8677,6.7396,249.3823"/>
			<path id="path104" fill-rule="evenodd" clip-rule="evenodd" fill="#231F20" d="M2.5855,249.3706
				c0.2043-0.3745,0.2708-0.7679,0.5611-1.0509c0.1308-0.1274,0.3851-0.2827,0.259-0.6371
				c-0.0295-0.0836-0.2448-0.2699-0.369-0.3065c-0.454-0.134-1.5117-0.0277-1.1535,0.5383c0.3754-0.0175,0.88-0.2438,1.1606,0.0287
				C2.8282,248.2876,2.444,248.9691,2.5855,249.3706"/>
			<path id="path106" fill-rule="evenodd" clip-rule="evenodd" fill="#231F20" d="M6.5692,245.5647
				c-0.6835-0.4391-1.4456-0.9165-2.5656-0.8058c-0.2393,0.208-0.3305,0.671-0.098,0.9768c0.121-0.2081,0.045-0.5907,0.3822-0.6483
				c0.6355-0.1087,1.3751,0.3887,1.8322,0.5626c0.2834,0.4779-0.0244,0.6536-0.2798,0.9612
				c-0.5227,0.6301-1.224,1.4111-1.1985,2.3545c0.2113,0.1532,0.2295-0.2338,0.2599-0.3043
				c0.273-0.6388,0.9599-1.4558,1.4613-2.0026c0.1231-0.1346,0.3258-0.2638,0.3484-0.3529
				C6.7762,246.0471,6.5421,245.7369,6.5692,245.5647"/>
			<path id="path108" fill-rule="evenodd" clip-rule="evenodd" fill="#231F20" d="M-2.4415,246.027
				c-0.2142,0.1223-0.2652,0.6608-0.5167,0.6762c-0.3594,0.0218-0.2939-0.6987-0.2925-1.1201
				c-0.2474,0.2246-0.2909,0.9162-0.1092,1.2714c-0.2071,0.1017-0.2996-0.1122-0.4145-0.1876
				C-3.6268,247.7396-2.2052,247.1644-2.4415,246.027"/>
			<path id="path110" fill-rule="evenodd" clip-rule="evenodd" fill="#231F20" d="M7.0044,245.118
				c-0.3182-0.6056-0.7682-1.2725-1.7018-1.2919c-0.019,0.1956-0.0336,0.4932,0.001,0.6109
				C6.0173,244.5056,6.458,244.8689,7.0044,245.118"/>
			<path id="path112" fill-rule="evenodd" clip-rule="evenodd" fill="#231F20" d="M2.5316,244.7254
				c0.5955-0.3131,1.6898-0.3468,2.4991-0.3231c0.0434-0.1773,0.0424-0.3964,0.044-0.6126
				C4.0345,243.7378,2.8044,243.9952,2.5316,244.7254"/>
			<path id="path114" fill-rule="evenodd" clip-rule="evenodd" fill="#231F20" d="M2.4184,244.1415
				c0.4118-1.0339,1.827-0.9148,3.0205-0.8863c-0.0525-0.1342-0.1664-0.2928-0.308-0.3501
				c-0.3824-0.1556-1.4373-0.2737-1.9682,0.0083c-0.3367,0.179-0.553,0.5835-0.7375,0.8206
				C2.3361,243.8484,1.8925,244.1409,2.4184,244.1415"/>
			<path id="path116" fill-rule="evenodd" clip-rule="evenodd" fill="#82B1C4" d="M6.5195,238.4388
				c-0.4832-0.8276-0.9456-1.6776-1.5188-2.4076c0.2403,0.7067,0.3432,1.8895,0.3795,2.7912
				C5.883,239.0576,6.3136,238.7694,6.5195,238.4388"/>
			<path id="path118" fill-rule="evenodd" clip-rule="evenodd" fill="#231F20" d="M9.1197,235.4643
				c-0.541-0.1083-0.9211-0.6341-1.4489-0.6003C7.9609,235.2728,8.4691,235.4452,9.1197,235.4643"/>
			<path id="path120" fill-rule="evenodd" clip-rule="evenodd" fill="#231F20" d="M9.3584,234.6176
				c-0.441-0.0466-0.9589-0.118-1.4061-0.0812C8.164,234.8598,8.9797,234.7482,9.3584,234.6176"/>
			<path id="path122" fill-rule="evenodd" clip-rule="evenodd" fill="#231F20" d="M9.5112,233.8877
				c-0.4956-0.0107-1.1116-0.0009-1.5826,0.0387C8.2072,234.2256,9.1898,234.0374,9.5112,233.8877"/>
			<path id="path124" fill-rule="evenodd" clip-rule="evenodd" fill="#DCD9D8" d="M5.5871,231.8901
				c0.0711-0.6224,0.3178-1.253,0.2869-1.9346c-0.274-0.0924-0.4314-0.1732-0.7985-0.1727
				c-0.0259,0.5793-0.1034,1.4648-0.0802,2.0171C5.1758,231.7879,5.442,231.9288,5.5871,231.8901"/>
			<path id="path126" fill-rule="evenodd" clip-rule="evenodd" fill="#F1D7B8" d="M4.7881,241.0627
				c-0.2488-0.1624-0.4608-0.3652-0.6998-0.5387c-0.53-0.0262-0.8192,0.0367-1.2086,0.341c0.0064,0.0244,0.0455,0.0135,0.047,0.0435
				C3.4941,240.6557,4.2152,241.0116,4.7881,241.0627"/>
			<path id="path128" fill-rule="evenodd" clip-rule="evenodd" fill="#82B1C4" d="M1.8099,237.1956
				c0.1559,0.6754,0.7666,1.0252,1.3212,1.3972c0.5724-0.7265,0.9206-1.6608,1.304-2.5624
				C3.5293,236.3034,2.6038,236.7464,1.8099,237.1956"/>
			<path id="path130" fill-rule="evenodd" clip-rule="evenodd" fill="#231F20" d="M4.9952,231.7998
				c-0.0232-0.5522,0.0543-1.4378,0.0802-2.0171c0.3671-0.0005,0.5245,0.0803,0.7985,0.1727
				c0.0309,0.6816-0.2158,1.3122-0.2869,1.9346C5.442,231.9288,5.1758,231.7879,4.9952,231.7998z M-0.7213,234.9404
				c0.2421-2.2255,0.5927-4.0963,1.2358-6.0671c1.4273-0.4334,3.148-0.4711,4.4096-0.0801
				c-0.2316,1.1123-0.1305,2.4665-0.2658,3.6534c-0.102,0.8922-0.05,1.7898-0.1899,2.7
				C2.9397,235.4647,0.7789,235.221-0.7213,234.9404z M4.8298,235.1327c-0.0129-0.9558,0.0428-1.8986,0.1158-2.8556
				c0.367,0.0551,0.6161,0.0919,0.9571,0.1666c-0.1107,0.9213-0.0971,1.958-0.3227,2.773
				C5.3193,235.2142,5.0898,235.2197,4.8298,235.1327z M6.6917,235.2867c-0.1742,0.0399-0.377,0.0016-0.5434-0.0017
				c0.0782-0.7791,0.268-1.6389,0.3348-2.4568c0.2618-0.0081,0.4017,0.1154,0.6171,0.1569
				C7.1118,233.7031,7.0375,234.6922,6.6917,235.2867L6.6917,235.2867z M9.5108,232.711c0.5458,0.1325,0.889,0.8011,0.7364,1.4876
				c-0.1025,0.4614-0.2849,1.3302-0.4802,1.6254c-0.1443,0.2183-0.5355,0.5042-0.8479,0.3041
				c-0.5082-0.3254-1.4034-0.4199-1.774-0.8138c0.1858-0.6187,0.2435-1.4685,0.3201-2.2524c0.6348-0.0396,1.416,0.1747,1.944-0.0527
				c-0.3686-0.1194-0.8469-0.1203-1.1653-0.2944C8.5041,232.5891,9.1135,232.6145,9.5108,232.711L9.5108,232.711z M4.4351,236.0303
				c-0.3834,0.9016-0.7315,1.8359-1.304,2.5624c-0.5546-0.3719-1.1654-0.7218-1.3212-1.3972
				C2.6038,236.7464,3.5293,236.3034,4.4351,236.0303z M5.3802,238.8223c-0.0363-0.9017-0.1392-2.0845-0.3795-2.7912
				c0.5733,0.73,1.0356,1.58,1.5188,2.4076C6.3136,238.7694,5.883,239.0576,5.3802,238.8223z M4.3089,239.203
				c-0.2172,0.0234-0.4015-0.2497-0.6839-0.1316c-0.0647-0.0715-0.1235-0.149-0.1895-0.2188
				c0.6237-0.7517,0.9072-1.8181,1.3889-2.7015c0.2585,0.8485,0.2287,1.7782,0.2856,2.7043
				C4.7549,238.8328,4.5578,239.1765,4.3089,239.203z M3.62,240.1121c-0.0232-0.2574,0.0367-0.3416,0.0885-0.6367
				C4.5548,239.2108,4.407,240.6369,3.62,240.1121z M2.6816,240.4202c-0.3646,0.1992-0.9124,0.4162-1.3834,0.5061
				c-0.5838,0.1117-0.5291-0.7963-0.5043-1.3381c0.0195-0.4289,0.2425-0.8824,0.3394-1.1673
				c0.0455-0.1331,0.0557-0.2742,0.1695-0.3006c0.201-0.0469,0.8642,0.2183,1.0532,0.3214c0.3997,0.2179,0.7097,0.564,1.0492,0.7964
				c0.0044,0.113,0.0087,0.226,0.0132,0.339c-0.2041,0.1017-0.4399,0.1739-0.7395,0.187c0.2032,0.1022,0.5022,0.1008,0.6874,0.2224
				c0.0018,0.0453,0.0037,0.0905,0.0052,0.1354C3.0333,240.1478,2.9044,240.2984,2.6816,240.4202z M-0.8013,241.0529
				c-0.3026-0.3073,0.8488-0.7261,1.2154-0.7486c-0.002,0.1944,0.1108,0.3777,0.0881,0.5172
				C0.0668,240.8979-0.5055,240.8474-0.8013,241.0529z M2.9268,240.9086c-0.0015-0.03-0.0406-0.0191-0.047-0.0435
				c0.3894-0.3043,0.6786-0.3672,1.2086-0.341c0.239,0.1734,0.4509,0.3763,0.6998,0.5387
				C4.2152,241.0116,3.4941,240.6557,2.9268,240.9086z M6.3487,239.871c-0.0164,0.3413-0.106,1.0433-0.317,1.1662
				c-0.4428,0.2585-1.23-0.5219-1.5635-0.6409c0.0363-0.1044,0.0962-0.1872,0.1008-0.3207
				c0.1972,0.0486,0.4374,0.0153,0.6083-0.0687c-0.1977-0.0221-0.4168-0.0206-0.5476-0.1148
				c-0.0479-0.1385,0.0117-0.3273-0.0201-0.5196c0.4692-0.1323,1.005-0.2028,1.5981-0.2202
				C6.323,239.3022,6.3623,239.5878,6.3487,239.871z M-1.3108,240.7557c-0.095,0.0677-0.7379,0.9042-0.826,0.8695
				c-1.1633-0.4588-2.2511-1.2521-3.2231-2.0024c0.9268-1.9886,1.3009-4.425,1.367-6.7733
				c1.0617-0.4966,1.9942-1.2124,3.4348-1.2871c-0.1667,1.1795-0.3189,2.2318-0.4135,3.3423
				c-0.362,0.1526-0.8813-0.0069-1.2201,0.0473c-0.0029,0.4082,0.5174,0.1788,0.5607,0.4533
				c0.0327,0.2076-0.2862,0.2234-0.1824,0.5503c0.2648-0.0963,0.4039-0.3089,0.6863-0.3887
				c0.2581,0.5646-0.0036,1.5635,0.0336,2.0354c0.007,0.0886,0.0442,0.4909,0.2427,0.4203c0.1756-0.0625-0.01-1.0698,0.0092-1.5164
				c0.0175-0.4115-0.0497-0.8096,0.1169-1.0679c1.3921,0.1895,2.8067,0.312,4.313,0.3533c-0.3314,0.1422-0.725,0.2767-1.1566,0.52
				c-0.234,0.1319-0.9715,0.4063-1.039,0.6286c-0.1077,0.3541,0.2826,0.5427,0.3494,0.8463
				c-0.7027-0.3832-0.8398,0.3674-1.006,0.8991c-0.1506,0.4816-0.2364,0.8414-0.2733,1.1192
				C-0.1425,240.0934-0.7897,240.3856-1.3108,240.7557L-1.3108,240.7557z M5.7339,241.524c0.9693,0.47,1.144-1.7566,0.764-2.4738
				c0.0587-0.2139,0.2607-0.2958,0.3431-0.4881c-0.5409-0.9689-1.1416-1.8734-1.6935-2.8309c0.4105,0.2556,0.9969,0.0457,1.48,0.237
				c0.1766,0.0698,0.3044,0.4741,0.4381,0.7975c0.3678,0.8898,0.7539,2.0115,0.9256,2.8606
				c0.0388,0.1935,0.1445,0.615,0.1208,0.7872c-0.0423,0.3083-0.4606,0.5369-0.6733,0.7276
				c-0.392,0.3521-0.6388,0.662-1.0477,0.9913C6.2253,241.8875,5.8695,241.7231,5.7339,241.524L5.7339,241.524z M-3.5274,250.1195
				c-0.4618-0.5082-0.3652-1.4603-0.3093-2.1377c0.8348,0.5252,1.9428-0.0415,1.9324-0.9348
				c0.3986,0.0106,0.1489,0.4978,0.0768,0.8116c-0.2356,1.0251,0.3969,2.1389,0.0287,3.0764
				C-2.5138,250.8808-3.1012,250.5887-3.5274,250.1195L-3.5274,250.1195z M-0.2228,253.0688
				c-1.0456-0.2963-2.3856-1.0561-2.8152-1.9953c0.3327,0.0483,0.5636,0.2161,0.8918,0.2369
				c0.124,0.0081,0.2865-0.052,0.4291-0.0166c0.2841,0.0705,0.5238,0.7074,0.7381,0.9444c0.2089,0.2314,0.46,0.3303,0.6318,0.5413
				c0.1104,0.0533,0.2736,0.0496,0.2799,0.2154C-0.1151,253.0461-0.1655,253.0851-0.2228,253.0688z M5.2199,252.7901
				c-1.0852,0.6123-2.9221,1.0728-4.0765,0.4974c-0.9315-0.4644-2.1906-1.2329-2.6199-2.2066
				c0.401-0.9397-0.1188-1.8007-0.152-2.7548c-0.0176-0.5076,0.239-0.9508,0.2587-1.5034
				c-0.1372-0.2264-0.5565-0.2543-0.8467-0.2388c-0.0977,0.4889-0.2687,1.0384-0.7721,1.0935
				c-0.7123,0.0779-1.2332-0.5116-1.2655-1.1277c-0.0383-0.7245,0.5565-1.9253,1.3995-1.8419
				c0.3257,0.0322,0.4057,0.3586,0.7605,0.3553c0.1923-0.3837-0.2966-0.5042-0.347-0.7786
				c-0.0131-0.0709,0.0406-0.3479,0.0718-0.4779c0.1531-0.6326,0.4945-1.4514,0.8304-1.9331
				c0.4264-0.6109,1.2642-0.703,2.1655-0.7629c0.161,0.3468,0.754,0.3183,1.1404,0.2276c-0.4631,0.1834-0.8936,0.628-1.2504,1.0216
				c-0.4098,0.4516-0.825,0.9359-0.8459,1.5261c0.7745-1.0744,1.4143-2.0127,2.8226-2.4854
				c1.0656-0.3574,2.3101,0.1638,3.1289,0.7388c0.3398,0.239,0.5426,0.6182,0.7841,0.9653c0.9036,1.2998,1.3253,3.155,1.2326,4.9532
				c-0.0382,0.7416-0.0365,1.4807-0.2853,1.9796c-0.2601,0.5217-1.1397,0.9884-1.6545,0.5166
				c-0.0954,0.5073,0.4282,0.8211,1.0432,0.6385C6.3035,251.7584,5.8432,252.4384,5.2199,252.7901L5.2199,252.7901z
				 M7.2418,236.0574c0.848,0.4216,2.4325,1.1347,2.9642-0.0016c0.1962-0.4189,0.4264-1.1269,0.528-1.5592
				c0.1436-0.61-0.1556-1.8921-0.7826-2.0967c-0.5538-0.1808-1.2-0.1698-1.867-0.0358c-0.0785,0.0653-0.166,0.1792-0.2271,0.2979
				c-0.4763,0.0185-0.9223-0.0256-1.2985-0.2214c0.0357-0.3522-0.2026-0.4088-0.426-0.4813
				c-0.1656-0.6565,0.3313-1.5139,0.2123-2.1126c-0.0848-0.4265-0.6096-0.4924-0.9953-0.5722
				c-0.0126-0.237,0.0169-0.4349,0.0432-0.6354c-0.0882-0.325-0.4837-0.5099-0.8585-0.5553
				c-1.2331-0.1483-3.1054-0.2149-4.2914,0.2116c-0.331,0.8118-0.5917,1.7992-0.8674,2.7263
				c-1.1568-0.1236-2.0924,0.4991-2.9743,0.9071c-0.3054,0.1416-0.7278,0.2196-0.8419,0.4626
				c-0.1106,0.2353-0.0653,0.6864-0.0928,1.1124c-0.0698,1.0882-0.1296,2.1377-0.417,3.2519c-0.129,0.5-0.3539,0.9411-0.5108,1.4229
				c-0.145,0.4465-0.3984,0.9983-0.4644,1.4435c-0.098,0.6599,0.5234,0.6966,0.9208,0.9826
				c0.6142,0.4422,1.0964,0.6868,1.7616,1.0859c0.197,0.1182,0.7912,0.4174,0.8588,0.5552
				c0.1344,0.2732-0.2306,0.6583-0.3282,0.8725c-0.1543,0.3386-0.2348,0.6263-0.257,0.9603
				c-0.558,0.0882-0.981,0.4203-1.2366,0.7948c-0.4227,0.6198-0.7158,1.7663-0.3501,2.6385
				c0.0287,0.0687,0.1717,0.2038,0.1928,0.3092c0.0416,0.2077-0.0783,0.4839-0.0858,0.7049
				c-0.0384,1.1336,0.1918,2.1103,0.9549,2.4521c0.3098,1.2341,1.4186,1.6445,2.4633,2.2578
				c0.3905,0.2292,0.821,0.3757,1.2655,0.5393c1.5948,0.5869,4.0416,0.4764,5.3652-0.5246
				c0.5612-0.4245,1.4583-1.3208,1.7792-1.9697c0.8475-1.7132,0.7873-4.5762,0.1945-6.6602
				c-0.0797-0.2798-0.1953-0.6911-0.3566-1.0271c-0.1125-0.2347-0.4622-0.7043-0.4198-0.9115
				c0.0437-0.2142,0.7974-0.7865,0.959-0.9423c0.291-0.2807,0.8438-0.6533,0.8886-1.0075c0.0481-0.377-0.1661-0.8927-0.2746-1.2565
				C8.0072,238.2618,7.6532,237.1397,7.2418,236.0574"/>
			<path id="path132" fill-rule="evenodd" clip-rule="evenodd" fill="#F7E4CE" d="M1.5841,244.4609
				c0.046,0.0612,0.2989,0.1543,0.6529-0.0162c0,0-0.4195-0.0699-0.3846-0.7693l-0.1748,0.035
				C1.6776,243.7105,1.497,244.3446,1.5841,244.4609"/>
			<path id="path134" fill-rule="evenodd" clip-rule="evenodd" fill="#1D1919" d="M4.6488,238.4501
				c0-0.1061-0.0861-0.1922-0.1923-0.1922c-0.1061,0-0.1922,0.0861-0.1922,0.1922c0,0.1061,0.0861,0.1923,0.1922,0.1923
				C4.5628,238.6424,4.6488,238.5562,4.6488,238.4501"/>
			<path id="path136" fill-rule="evenodd" clip-rule="evenodd" fill="#1D1919" d="M4.8411,237.5587
				c0-0.1061-0.0861-0.1922-0.1923-0.1922c-0.1061,0-0.1922,0.0861-0.1922,0.1922c0,0.1061,0.0861,0.1923,0.1922,0.1923
				C4.755,237.751,4.8411,237.6649,4.8411,237.5587"/>
		</g>
		<text transform="matrix(0.8 0 0 -0.8 16.393 235.4904)" fill="#010101" font-family="'Georgia-Bold'" font-size="18.8754px">Jenkins</text>
	</g>
</g>
</svg>
